<svg xmlns="http://www.w3.org/2000/svg" viewBox="0 0 1400 900" role="img" aria-labelledby="title desc">
  <title>Academic Pressure</title>
  <desc>Quizzes, assignments, and time management</desc>
  <defs>
    <linearGradient id="bg-06" x1="0" y1="0" x2="1" y2="1">
      <stop offset="0%" stop-color="#eefaf4"/>
      <stop offset="100%" stop-color="#8cd2aa"/>
    </linearGradient>
    <linearGradient id="panel-06" x1="0" y1="0" x2="1" y2="1">
      <stop offset="0%" stop-color="#ffffff" stop-opacity="0.92"/>
      <stop offset="100%" stop-color="#ffffff" stop-opacity="0.70"/>
    </linearGradient>
    <filter id="shadow-06" x="-20%" y="-20%" width="140%" height="140%">
      <feDropShadow dx="0" dy="22" stdDeviation="28" flood-color="#0e1a29" flood-opacity="0.14"/>
    </filter>
  </defs>
  <rect width="1400" height="900" rx="44" fill="url(#bg-06)"/>
  <circle cx="1225" cy="120" r="170" fill="#ffffff" opacity="0.18"/>
  <circle cx="170" cy="740" r="190" fill="#ffffff" opacity="0.10"/>
  <rect x="88" y="94" width="1224" height="712" rx="42" fill="url(#panel-06)" filter="url(#shadow-06)"/>
  <rect x="140" y="156" width="190" height="52" rx="26" fill="#1e7352" opacity="0.12"/>
  <text x="235" y="189" font-family="Arial, sans-serif" font-size="24" font-weight="700" text-anchor="middle" fill="#1e7352">Article 06</text>
  <text x="140" y="300" font-family="Georgia, serif" font-size="66" font-weight="700" fill="#11243a">Academic Pressure</text>
  <text x="140" y="360" font-family="Arial, sans-serif" font-size="29" fill="#546779">Quizzes, assignments, and time management</text>
  <rect x="140" y="420" width="430" height="220" rx="32" fill="#ffffff" opacity="0.72"/>
  <text x="178" y="478" font-family="Arial, sans-serif" font-size="24" font-weight="700" fill="#1e7352">Journey Reflection</text>
  <text x="178" y="530" font-family="Arial, sans-serif" font-size="24" fill="#465b6e">A visual marker for this part of</text>
  <text x="178" y="568" font-family="Arial, sans-serif" font-size="24" fill="#465b6e">the Computer Engineering journey.</text>
  <text x="178" y="620" font-family="Arial, sans-serif" font-size="21" fill="#7a8c9a">Click the article card to read the full story.</text>
  <g>
    <rect x="780" y="250" width="300" height="340" rx="28" fill="#ffffff" stroke="#1e7352" stroke-width="10"/>
    <rect x="860" y="210" width="140" height="52" rx="18" fill="#1e7352"/>
    <g fill="none" stroke="#1e7352" stroke-width="10" stroke-linecap="round" stroke-linejoin="round">
      <path d="M842 352 L872 382 L930 324"/>
      <path d="M842 442 L872 472 L930 414"/>
    </g>
    <path d="M970 340 H1018" stroke="#b97e45" stroke-width="12" stroke-linecap="round"/>
    <path d="M970 430 H1035" stroke="#b97e45" stroke-width="12" stroke-linecap="round"/>
    <circle cx="1140" cy="330" r="70" fill="#f4be74" opacity="0.95"/>
    <path d="M1140 330 L1140 285" stroke="#7c4d1f" stroke-width="10" stroke-linecap="round"/>
    <path d="M1140 330 L1172 348" stroke="#7c4d1f" stroke-width="10" stroke-linecap="round"/>
  </g>
</svg>
