<svg xmlns="http://www.w3.org/2000/svg" viewBox="0 0 1400 900" role="img" aria-labelledby="title desc">
  <title>First Achievement</title>
  <desc>A confidence boost from the first GPA result</desc>
  <defs>
    <linearGradient id="bg-08" x1="0" y1="0" x2="1" y2="1">
      <stop offset="0%" stop-color="#fff6e8"/>
      <stop offset="100%" stop-color="#ffd088"/>
    </linearGradient>
    <linearGradient id="panel-08" x1="0" y1="0" x2="1" y2="1">
      <stop offset="0%" stop-color="#ffffff" stop-opacity="0.92"/>
      <stop offset="100%" stop-color="#ffffff" stop-opacity="0.70"/>
    </linearGradient>
    <filter id="shadow-08" x="-20%" y="-20%" width="140%" height="140%">
      <feDropShadow dx="0" dy="22" stdDeviation="28" flood-color="#0e1a29" flood-opacity="0.14"/>
    </filter>
  </defs>
  <rect width="1400" height="900" rx="44" fill="url(#bg-08)"/>
  <circle cx="1225" cy="120" r="170" fill="#ffffff" opacity="0.18"/>
  <circle cx="170" cy="740" r="190" fill="#ffffff" opacity="0.10"/>
  <rect x="88" y="94" width="1224" height="712" rx="42" fill="url(#panel-08)" filter="url(#shadow-08)"/>
  <rect x="140" y="156" width="190" height="52" rx="26" fill="#8c5a16" opacity="0.12"/>
  <text x="235" y="189" font-family="Arial, sans-serif" font-size="24" font-weight="700" text-anchor="middle" fill="#8c5a16">Article 08</text>
  <text x="140" y="300" font-family="Georgia, serif" font-size="66" font-weight="700" fill="#11243a">First Achievement</text>
  <text x="140" y="360" font-family="Arial, sans-serif" font-size="29" fill="#546779">A confidence boost from the first GPA result</text>
  <rect x="140" y="420" width="430" height="220" rx="32" fill="#ffffff" opacity="0.72"/>
  <text x="178" y="478" font-family="Arial, sans-serif" font-size="24" font-weight="700" fill="#8c5a16">Journey Reflection</text>
  <text x="178" y="530" font-family="Arial, sans-serif" font-size="24" fill="#465b6e">A visual marker for this part of</text>
  <text x="178" y="568" font-family="Arial, sans-serif" font-size="24" fill="#465b6e">the Computer Engineering journey.</text>
  <text x="178" y="620" font-family="Arial, sans-serif" font-size="21" fill="#7a8c9a">Click the article card to read the full story.</text>
  <g>
    <circle cx="930" cy="350" r="120" fill="#fffdf8" stroke="#8c5a16" stroke-width="12"/>
    <circle cx="930" cy="350" r="74" fill="#ffd088"/>
    <path d="M930 298 L944 334 L982 336 L952 360 L962 396 L930 376 L898 396 L908 360 L878 336 L916 334 Z" fill="#8c5a16"/>
    <path d="M870 455 L900 560 L930 520 L960 560 L990 455" fill="#6bb6ff" opacity="0.96"/>
    <rect x="1075" y="280" width="110" height="150" rx="24" fill="#ffffff" stroke="#8c5a16" stroke-width="10"/>
    <path d="M1108 390 L1140 340 L1164 372 L1192 320" fill="none" stroke="#8c5a16" stroke-width="12" stroke-linecap="round" stroke-linejoin="round"/>
  </g>
</svg>
