<svg xmlns="http://www.w3.org/2000/svg" viewBox="0 0 1400 900" role="img" aria-labelledby="title desc">
  <title>The Impact of a Mentor in My First Semester</title>
  <desc>A mentor-themed visual for article 8.</desc>
  <defs>
    <linearGradient id="bg-11" x1="0" y1="0" x2="1" y2="1">
      <stop offset="0%" stop-color="#eef6ff"/>
      <stop offset="100%" stop-color="#8fc0ff"/>
    </linearGradient>
    <linearGradient id="panel-11" x1="0" y1="0" x2="1" y2="1">
      <stop offset="0%" stop-color="#ffffff" stop-opacity="0.94"/>
      <stop offset="100%" stop-color="#ffffff" stop-opacity="0.74"/>
    </linearGradient>
    <filter id="shadow-11" x="-20%" y="-20%" width="140%" height="140%">
      <feDropShadow dx="0" dy="22" stdDeviation="28" flood-color="#0e1a29" flood-opacity="0.14"/>
    </filter>
  </defs>
  <rect width="1400" height="900" rx="44" fill="url(#bg-11)"/>
  <circle cx="1210" cy="120" r="170" fill="#ffffff" opacity="0.18"/>
  <circle cx="170" cy="760" r="200" fill="#ffffff" opacity="0.10"/>
  <rect x="88" y="94" width="1224" height="712" rx="42" fill="url(#panel-11)" filter="url(#shadow-11)"/>
  <rect x="140" y="156" width="190" height="52" rx="26" fill="#1d4f82" opacity="0.12"/>
  <text x="235" y="189" font-family="Arial, sans-serif" font-size="24" font-weight="700" text-anchor="middle" fill="#1d4f82">Article 08</text>
  <text x="140" y="300" font-family="Georgia, serif" font-size="64" font-weight="700" fill="#11243a">Impact of a Mentor</text>
  <text x="140" y="360" font-family="Arial, sans-serif" font-size="29" fill="#546779">Professional guidance, stronger discipline, and real growth.</text>
  <rect x="140" y="430" width="450" height="214" rx="32" fill="#ffffff" opacity="0.72"/>
  <text x="178" y="486" font-family="Arial, sans-serif" font-size="24" font-weight="700" fill="#1d4f82">Mentor Influence</text>
  <text x="178" y="538" font-family="Arial, sans-serif" font-size="24" fill="#465b6e">A teacher who pushed learning beyond</text>
  <text x="178" y="576" font-family="Arial, sans-serif" font-size="24" fill="#465b6e">the syllabus and closer to professional life.</text>
  <text x="178" y="626" font-family="Arial, sans-serif" font-size="21" fill="#7a8c9a">Projects, pressure, and practical preparation.</text>
  <rect x="820" y="252" width="320" height="320" rx="34" fill="#ffffff" stroke="#1d4f82" stroke-width="12"/>
  <rect x="858" y="210" width="244" height="56" rx="20" fill="#1d4f82"/>
  <rect x="884" y="332" width="194" height="26" rx="13" fill="#d8e8fb"/>
  <rect x="884" y="388" width="194" height="26" rx="13" fill="#d8e8fb"/>
  <rect x="884" y="444" width="154" height="26" rx="13" fill="#d8e8fb"/>
  <circle cx="778" cy="384" r="80" fill="#f2bf69"/>
  <circle cx="778" cy="336" r="40" fill="#f8d59b"/>
  <rect x="726" y="386" width="104" height="128" rx="34" fill="#244d7f"/>
  <path d="M736 420 Q778 388 820 420" fill="none" stroke="#f8d59b" stroke-width="12" stroke-linecap="round"/>
  <path d="M932 494 L982 544 L1082 418" fill="none" stroke="#1d4f82" stroke-width="16" stroke-linecap="round" stroke-linejoin="round"/>
</svg>


