<svg xmlns="http://www.w3.org/2000/svg" viewBox="0 0 1400 900" role="img" aria-labelledby="title desc">
  <title>Admission in UET</title>
  <desc>A turning point and the start of a new path</desc>
  <defs>
    <linearGradient id="bg-03" x1="0" y1="0" x2="1" y2="1">
      <stop offset="0%" stop-color="#e3f6ee"/>
      <stop offset="100%" stop-color="#7fd2a7"/>
    </linearGradient>
    <linearGradient id="panel-03" x1="0" y1="0" x2="1" y2="1">
      <stop offset="0%" stop-color="#ffffff" stop-opacity="0.92"/>
      <stop offset="100%" stop-color="#ffffff" stop-opacity="0.70"/>
    </linearGradient>
    <filter id="shadow-03" x="-20%" y="-20%" width="140%" height="140%">
      <feDropShadow dx="0" dy="22" stdDeviation="28" flood-color="#0e1a29" flood-opacity="0.14"/>
    </filter>
  </defs>
  <rect width="1400" height="900" rx="44" fill="url(#bg-03)"/>
  <circle cx="1225" cy="120" r="170" fill="#ffffff" opacity="0.18"/>
  <circle cx="170" cy="740" r="190" fill="#ffffff" opacity="0.10"/>
  <rect x="88" y="94" width="1224" height="712" rx="42" fill="url(#panel-03)" filter="url(#shadow-03)"/>
  <rect x="140" y="156" width="190" height="52" rx="26" fill="#1f7a59" opacity="0.12"/>
  <text x="235" y="189" font-family="Arial, sans-serif" font-size="24" font-weight="700" text-anchor="middle" fill="#1f7a59">Article 03</text>
  <text x="140" y="300" font-family="Georgia, serif" font-size="66" font-weight="700" fill="#11243a">Admission in UET</text>
  <text x="140" y="360" font-family="Arial, sans-serif" font-size="29" fill="#546779">A turning point and the start of a new path</text>
  <rect x="140" y="420" width="430" height="220" rx="32" fill="#ffffff" opacity="0.72"/>
  <text x="178" y="478" font-family="Arial, sans-serif" font-size="24" font-weight="700" fill="#1f7a59">Journey Reflection</text>
  <text x="178" y="530" font-family="Arial, sans-serif" font-size="24" fill="#465b6e">A visual marker for this part of</text>
  <text x="178" y="568" font-family="Arial, sans-serif" font-size="24" fill="#465b6e">the Computer Engineering journey.</text>
  <text x="178" y="620" font-family="Arial, sans-serif" font-size="21" fill="#7a8c9a">Click the article card to read the full story.</text>
  <g>
    <rect x="760" y="520" width="320" height="42" rx="21" fill="#1f7a59" opacity="0.14"/>
    <path d="M800 520 V350 C800 285 850 240 920 240 C990 240 1040 285 1040 350 V520" fill="#ffffff" stroke="#1f7a59" stroke-width="14"/>
    <rect x="890" y="365" width="60" height="155" rx="18" fill="#1f7a59"/>
    <rect x="824" y="370" width="48" height="150" rx="16" fill="#88d4ae"/>
    <rect x="968" y="370" width="48" height="150" rx="16" fill="#88d4ae"/>
    <circle cx="920" cy="320" r="30" fill="#ffd28d"/>
    <path d="M1050 300 L1090 340 L1050 380 L1034 364 L1048 350 H990 V330 H1048 L1034 316 Z" fill="#1f7a59"/>
  </g>
</svg>
