<svg xmlns="http://www.w3.org/2000/svg" viewBox="0 0 1400 900" role="img" aria-labelledby="title desc">
  <title>Future Goals</title>
  <desc>Growth, confidence, and a clearer direction</desc>
  <defs>
    <linearGradient id="bg-10" x1="0" y1="0" x2="1" y2="1">
      <stop offset="0%" stop-color="#ecfbf4"/>
      <stop offset="100%" stop-color="#88d9b1"/>
    </linearGradient>
    <linearGradient id="panel-10" x1="0" y1="0" x2="1" y2="1">
      <stop offset="0%" stop-color="#ffffff" stop-opacity="0.92"/>
      <stop offset="100%" stop-color="#ffffff" stop-opacity="0.70"/>
    </linearGradient>
    <filter id="shadow-10" x="-20%" y="-20%" width="140%" height="140%">
      <feDropShadow dx="0" dy="22" stdDeviation="28" flood-color="#0e1a29" flood-opacity="0.14"/>
    </filter>
  </defs>
  <rect width="1400" height="900" rx="44" fill="url(#bg-10)"/>
  <circle cx="1225" cy="120" r="170" fill="#ffffff" opacity="0.18"/>
  <circle cx="170" cy="740" r="190" fill="#ffffff" opacity="0.10"/>
  <rect x="88" y="94" width="1224" height="712" rx="42" fill="url(#panel-10)" filter="url(#shadow-10)"/>
  <rect x="140" y="156" width="190" height="52" rx="26" fill="#1e7b54" opacity="0.12"/>
  <text x="235" y="189" font-family="Arial, sans-serif" font-size="24" font-weight="700" text-anchor="middle" fill="#1e7b54">Article 11</text>
  <text x="140" y="300" font-family="Georgia, serif" font-size="66" font-weight="700" fill="#11243a">Future Goals</text>
  <text x="140" y="360" font-family="Arial, sans-serif" font-size="29" fill="#546779">Growth, confidence, and a clearer direction</text>
  <rect x="140" y="420" width="430" height="220" rx="32" fill="#ffffff" opacity="0.72"/>
  <text x="178" y="478" font-family="Arial, sans-serif" font-size="24" font-weight="700" fill="#1e7b54">Journey Reflection</text>
  <text x="178" y="530" font-family="Arial, sans-serif" font-size="24" fill="#465b6e">A visual marker for this part of</text>
  <text x="178" y="568" font-family="Arial, sans-serif" font-size="24" fill="#465b6e">the Computer Engineering journey.</text>
  <text x="178" y="620" font-family="Arial, sans-serif" font-size="21" fill="#7a8c9a">Click the article card to read the full story.</text>
  <g>
    <path d="M790 550 C840 470 900 430 950 382 C998 336 1052 300 1130 272" fill="none" stroke="#1e7b54" stroke-width="22" stroke-linecap="round"/>
    <circle cx="790" cy="550" r="28" fill="#ffc16d"/>
    <circle cx="950" cy="382" r="24" fill="#ffffff" stroke="#1e7b54" stroke-width="10"/>
    <path d="M1110 248 L1190 248 L1190 328" fill="none" stroke="#1e7b54" stroke-width="14" stroke-linecap="round" stroke-linejoin="round"/>
    <path d="M1158 214 L1190 248 L1156 280" fill="none" stroke="#1e7b54" stroke-width="14" stroke-linecap="round" stroke-linejoin="round"/>
    <rect x="820" y="250" width="180" height="96" rx="24" fill="#ffffff" stroke="#1e7b54" stroke-width="10"/>
    <path d="M860 315 H948" stroke="#1e7b54" stroke-width="12" stroke-linecap="round"/>
    <path d="M860 285 H930" stroke="#c2863d" stroke-width="12" stroke-linecap="round"/>
  </g>
</svg>

