<svg xmlns="http://www.w3.org/2000/svg" viewBox="0 0 1400 900" role="img" aria-labelledby="title desc">
  <title>Switching Fields</title>
  <desc>From medical studies to engineering concepts</desc>
  <defs>
    <linearGradient id="bg-04" x1="0" y1="0" x2="1" y2="1">
      <stop offset="0%" stop-color="#f9eee7"/>
      <stop offset="100%" stop-color="#f1b28b"/>
    </linearGradient>
    <linearGradient id="panel-04" x1="0" y1="0" x2="1" y2="1">
      <stop offset="0%" stop-color="#ffffff" stop-opacity="0.92"/>
      <stop offset="100%" stop-color="#ffffff" stop-opacity="0.70"/>
    </linearGradient>
    <filter id="shadow-04" x="-20%" y="-20%" width="140%" height="140%">
      <feDropShadow dx="0" dy="22" stdDeviation="28" flood-color="#0e1a29" flood-opacity="0.14"/>
    </filter>
  </defs>
  <rect width="1400" height="900" rx="44" fill="url(#bg-04)"/>
  <circle cx="1225" cy="120" r="170" fill="#ffffff" opacity="0.18"/>
  <circle cx="170" cy="740" r="190" fill="#ffffff" opacity="0.10"/>
  <rect x="88" y="94" width="1224" height="712" rx="42" fill="url(#panel-04)" filter="url(#shadow-04)"/>
  <rect x="140" y="156" width="190" height="52" rx="26" fill="#9a4b2c" opacity="0.12"/>
  <text x="235" y="189" font-family="Arial, sans-serif" font-size="24" font-weight="700" text-anchor="middle" fill="#9a4b2c">Article 04</text>
  <text x="140" y="300" font-family="Georgia, serif" font-size="66" font-weight="700" fill="#11243a">Switching Fields</text>
  <text x="140" y="360" font-family="Arial, sans-serif" font-size="29" fill="#546779">From medical studies to engineering concepts</text>
  <rect x="140" y="420" width="430" height="220" rx="32" fill="#ffffff" opacity="0.72"/>
  <text x="178" y="478" font-family="Arial, sans-serif" font-size="24" font-weight="700" fill="#9a4b2c">Journey Reflection</text>
  <text x="178" y="530" font-family="Arial, sans-serif" font-size="24" fill="#465b6e">A visual marker for this part of</text>
  <text x="178" y="568" font-family="Arial, sans-serif" font-size="24" fill="#465b6e">the Computer Engineering journey.</text>
  <text x="178" y="620" font-family="Arial, sans-serif" font-size="21" fill="#7a8c9a">Click the article card to read the full story.</text>
  <g>
    <circle cx="825" cy="360" r="95" fill="#ffffff" stroke="#9a4b2c" stroke-width="12"/>
    <rect x="802" y="300" width="46" height="120" rx="18" fill="#9a4b2c"/>
    <rect x="764" y="338" width="120" height="46" rx="18" fill="#9a4b2c"/>
    <path d="M940 360 H1010" stroke="#9a4b2c" stroke-width="14" stroke-linecap="round"/>
    <path d="M995 336 L1040 360 L995 384" fill="none" stroke="#9a4b2c" stroke-width="14" stroke-linecap="round" stroke-linejoin="round"/>
    <rect x="1025" y="282" width="160" height="160" rx="28" fill="#0f3f63"/>
    <rect x="1072" y="240" width="66" height="42" rx="12" fill="#79c1ff"/>
    <g fill="#79c1ff">
      <circle cx="1068" cy="324" r="10"/><circle cx="1120" cy="324" r="10"/><circle cx="1172" cy="324" r="10"/>
      <circle cx="1068" cy="376" r="10"/><circle cx="1120" cy="376" r="10"/><circle cx="1172" cy="376" r="10"/>
    </g>
  </g>
</svg>
