<svg xmlns="http://www.w3.org/2000/svg" viewBox="0 0 1400 900" role="img" aria-labelledby="title desc">
  <title>Second Semester</title>
  <desc>Disruptions, online classes, and Ramadan balance</desc>
  <defs>
    <linearGradient id="bg-09" x1="0" y1="0" x2="1" y2="1">
      <stop offset="0%" stop-color="#eef3ff"/>
      <stop offset="100%" stop-color="#a6b8ff"/>
    </linearGradient>
    <linearGradient id="panel-09" x1="0" y1="0" x2="1" y2="1">
      <stop offset="0%" stop-color="#ffffff" stop-opacity="0.92"/>
      <stop offset="100%" stop-color="#ffffff" stop-opacity="0.70"/>
    </linearGradient>
    <filter id="shadow-09" x="-20%" y="-20%" width="140%" height="140%">
      <feDropShadow dx="0" dy="22" stdDeviation="28" flood-color="#0e1a29" flood-opacity="0.14"/>
    </filter>
  </defs>
  <rect width="1400" height="900" rx="44" fill="url(#bg-09)"/>
  <circle cx="1225" cy="120" r="170" fill="#ffffff" opacity="0.18"/>
  <circle cx="170" cy="740" r="190" fill="#ffffff" opacity="0.10"/>
  <rect x="88" y="94" width="1224" height="712" rx="42" fill="url(#panel-09)" filter="url(#shadow-09)"/>
  <rect x="140" y="156" width="190" height="52" rx="26" fill="#4050a5" opacity="0.12"/>
  <text x="235" y="189" font-family="Arial, sans-serif" font-size="24" font-weight="700" text-anchor="middle" fill="#4050a5">Article 09</text>
  <text x="140" y="300" font-family="Georgia, serif" font-size="66" font-weight="700" fill="#11243a">Second Semester</text>
  <text x="140" y="360" font-family="Arial, sans-serif" font-size="29" fill="#546779">Disruptions, online classes, and Ramadan balance</text>
  <rect x="140" y="420" width="430" height="220" rx="32" fill="#ffffff" opacity="0.72"/>
  <text x="178" y="478" font-family="Arial, sans-serif" font-size="24" font-weight="700" fill="#4050a5">Journey Reflection</text>
  <text x="178" y="530" font-family="Arial, sans-serif" font-size="24" fill="#465b6e">A visual marker for this part of</text>
  <text x="178" y="568" font-family="Arial, sans-serif" font-size="24" fill="#465b6e">the Computer Engineering journey.</text>
  <text x="178" y="620" font-family="Arial, sans-serif" font-size="21" fill="#7a8c9a">Click the article card to read the full story.</text>
  <g>
    <rect x="760" y="310" width="360" height="220" rx="26" fill="#1f2748"/>
    <rect x="785" y="335" width="310" height="170" rx="18" fill="#f8fbff"/>
    <rect x="860" y="540" width="160" height="24" rx="12" fill="#4050a5" opacity="0.35"/>
    <path d="M875 392 H1008" stroke="#4050a5" stroke-width="12" stroke-linecap="round"/>
    <path d="M875 432 H1060" stroke="#b57a2f" stroke-width="12" stroke-linecap="round"/>
    <path d="M1128 250 A68 68 0 1 0 1188 362 A48 48 0 1 1 1128 250 Z" fill="#ffcd73"/>
    <path d="M725 330 Q692 365 725 400" fill="none" stroke="#4050a5" stroke-width="12" stroke-linecap="round"/>
    <path d="M690 305 Q640 365 690 425" fill="none" stroke="#4050a5" stroke-width="12" stroke-linecap="round" opacity="0.55"/>
  </g>
</svg>
