<svg xmlns="http://www.w3.org/2000/svg" viewBox="0 0 1400 900" role="img" aria-labelledby="title desc">
  <title>Health Challenges</title>
  <desc>Illness, missed papers, and recovery</desc>
  <defs>
    <linearGradient id="bg-07" x1="0" y1="0" x2="1" y2="1">
      <stop offset="0%" stop-color="#eef5ff"/>
      <stop offset="100%" stop-color="#9cc9ff"/>
    </linearGradient>
    <linearGradient id="panel-07" x1="0" y1="0" x2="1" y2="1">
      <stop offset="0%" stop-color="#ffffff" stop-opacity="0.92"/>
      <stop offset="100%" stop-color="#ffffff" stop-opacity="0.70"/>
    </linearGradient>
    <filter id="shadow-07" x="-20%" y="-20%" width="140%" height="140%">
      <feDropShadow dx="0" dy="22" stdDeviation="28" flood-color="#0e1a29" flood-opacity="0.14"/>
    </filter>
  </defs>
  <rect width="1400" height="900" rx="44" fill="url(#bg-07)"/>
  <circle cx="1225" cy="120" r="170" fill="#ffffff" opacity="0.18"/>
  <circle cx="170" cy="740" r="190" fill="#ffffff" opacity="0.10"/>
  <rect x="88" y="94" width="1224" height="712" rx="42" fill="url(#panel-07)" filter="url(#shadow-07)"/>
  <rect x="140" y="156" width="190" height="52" rx="26" fill="#245c99" opacity="0.12"/>
  <text x="235" y="189" font-family="Arial, sans-serif" font-size="24" font-weight="700" text-anchor="middle" fill="#245c99">Article 07</text>
  <text x="140" y="300" font-family="Georgia, serif" font-size="66" font-weight="700" fill="#11243a">Health Challenges</text>
  <text x="140" y="360" font-family="Arial, sans-serif" font-size="29" fill="#546779">Illness, missed papers, and recovery</text>
  <rect x="140" y="420" width="430" height="220" rx="32" fill="#ffffff" opacity="0.72"/>
  <text x="178" y="478" font-family="Arial, sans-serif" font-size="24" font-weight="700" fill="#245c99">Journey Reflection</text>
  <text x="178" y="530" font-family="Arial, sans-serif" font-size="24" fill="#465b6e">A visual marker for this part of</text>
  <text x="178" y="568" font-family="Arial, sans-serif" font-size="24" fill="#465b6e">the Computer Engineering journey.</text>
  <text x="178" y="620" font-family="Arial, sans-serif" font-size="21" fill="#7a8c9a">Click the article card to read the full story.</text>
  <g>
    <rect x="785" y="255" width="310" height="330" rx="30" fill="#ffffff" stroke="#245c99" stroke-width="10"/>
    <rect x="905" y="300" width="70" height="150" rx="22" fill="#ff9f8b"/>
    <rect x="865" y="340" width="150" height="70" rx="22" fill="#ff9f8b"/>
    <path d="M845 500 H1035" stroke="#245c99" stroke-width="12" stroke-linecap="round"/>
    <path d="M1075 285 Q1140 220 1205 285 Q1205 350 1140 410 Q1075 350 1075 285 Z" fill="#ff9f8b" opacity="0.9"/>
    <path d="M1130 300 L1150 300 L1148 346 L1132 346 Z" fill="#ffffff"/>
    <path d="M1130 358 H1150" stroke="#ffffff" stroke-width="12" stroke-linecap="round"/>
  </g>
</svg>
