<svg xmlns="http://www.w3.org/2000/svg" viewBox="0 0 1400 900" role="img" aria-labelledby="title desc">
  <title>Admission Struggle</title>
  <desc>Applications, low scores, and uncertainty</desc>
  <defs>
    <linearGradient id="bg-02" x1="0" y1="0" x2="1" y2="1">
      <stop offset="0%" stop-color="#edf1ff"/>
      <stop offset="100%" stop-color="#95a9ff"/>
    </linearGradient>
    <linearGradient id="panel-02" x1="0" y1="0" x2="1" y2="1">
      <stop offset="0%" stop-color="#ffffff" stop-opacity="0.92"/>
      <stop offset="100%" stop-color="#ffffff" stop-opacity="0.70"/>
    </linearGradient>
    <filter id="shadow-02" x="-20%" y="-20%" width="140%" height="140%">
      <feDropShadow dx="0" dy="22" stdDeviation="28" flood-color="#0e1a29" flood-opacity="0.14"/>
    </filter>
  </defs>
  <rect width="1400" height="900" rx="44" fill="url(#bg-02)"/>
  <circle cx="1225" cy="120" r="170" fill="#ffffff" opacity="0.18"/>
  <circle cx="170" cy="740" r="190" fill="#ffffff" opacity="0.10"/>
  <rect x="88" y="94" width="1224" height="712" rx="42" fill="url(#panel-02)" filter="url(#shadow-02)"/>
  <rect x="140" y="156" width="190" height="52" rx="26" fill="#3748a8" opacity="0.12"/>
  <text x="235" y="189" font-family="Arial, sans-serif" font-size="24" font-weight="700" text-anchor="middle" fill="#3748a8">Article 02</text>
  <text x="140" y="300" font-family="Georgia, serif" font-size="66" font-weight="700" fill="#11243a">Admission Struggle</text>
  <text x="140" y="360" font-family="Arial, sans-serif" font-size="29" fill="#546779">Applications, low scores, and uncertainty</text>
  <rect x="140" y="420" width="430" height="220" rx="32" fill="#ffffff" opacity="0.72"/>
  <text x="178" y="478" font-family="Arial, sans-serif" font-size="24" font-weight="700" fill="#3748a8">Journey Reflection</text>
  <text x="178" y="530" font-family="Arial, sans-serif" font-size="24" fill="#465b6e">A visual marker for this part of</text>
  <text x="178" y="568" font-family="Arial, sans-serif" font-size="24" fill="#465b6e">the Computer Engineering journey.</text>
  <text x="178" y="620" font-family="Arial, sans-serif" font-size="21" fill="#7a8c9a">Click the article card to read the full story.</text>
  <g>
    <rect x="792" y="270" width="250" height="320" rx="28" fill="#ffffff" stroke="#3748a8" stroke-width="10"/>
    <path d="M870 340 L940 340" stroke="#3748a8" stroke-width="12" stroke-linecap="round"/>
    <path d="M870 390 L980 390" stroke="#9f6c3e" stroke-width="12" stroke-linecap="round"/>
    <path d="M870 440 L950 440" stroke="#3748a8" stroke-width="12" stroke-linecap="round"/>
    <path d="M725 505 L770 460 L770 490 L845 490 L845 520 L770 520 L770 550 Z" fill="#ffc073"/>
    <path d="M1110 355 L1065 310 L1065 340 L990 340 L990 370 L1065 370 L1065 400 Z" fill="#3748a8"/>
    <circle cx="760" cy="330" r="44" fill="#ffffff" stroke="#3748a8" stroke-width="10"/>
    <text x="760" y="345" font-size="44" text-anchor="middle" font-family="Arial, sans-serif" fill="#3748a8">?</text>
  </g>
</svg>
