<svg xmlns="http://www.w3.org/2000/svg" viewBox="0 0 1400 900" role="img" aria-labelledby="title desc">
  <title>First Semester</title>
  <desc>Fear, pressure, and self-doubt</desc>
  <defs>
    <linearGradient id="bg-05" x1="0" y1="0" x2="1" y2="1">
      <stop offset="0%" stop-color="#edf4ff"/>
      <stop offset="100%" stop-color="#8db7ff"/>
    </linearGradient>
    <linearGradient id="panel-05" x1="0" y1="0" x2="1" y2="1">
      <stop offset="0%" stop-color="#ffffff" stop-opacity="0.92"/>
      <stop offset="100%" stop-color="#ffffff" stop-opacity="0.70"/>
    </linearGradient>
    <filter id="shadow-05" x="-20%" y="-20%" width="140%" height="140%">
      <feDropShadow dx="0" dy="22" stdDeviation="28" flood-color="#0e1a29" flood-opacity="0.14"/>
    </filter>
  </defs>
  <rect width="1400" height="900" rx="44" fill="url(#bg-05)"/>
  <circle cx="1225" cy="120" r="170" fill="#ffffff" opacity="0.18"/>
  <circle cx="170" cy="740" r="190" fill="#ffffff" opacity="0.10"/>
  <rect x="88" y="94" width="1224" height="712" rx="42" fill="url(#panel-05)" filter="url(#shadow-05)"/>
  <rect x="140" y="156" width="190" height="52" rx="26" fill="#2a4f92" opacity="0.12"/>
  <text x="235" y="189" font-family="Arial, sans-serif" font-size="24" font-weight="700" text-anchor="middle" fill="#2a4f92">Article 05</text>
  <text x="140" y="300" font-family="Georgia, serif" font-size="66" font-weight="700" fill="#11243a">First Semester</text>
  <text x="140" y="360" font-family="Arial, sans-serif" font-size="29" fill="#546779">Fear, pressure, and self-doubt</text>
  <rect x="140" y="420" width="430" height="220" rx="32" fill="#ffffff" opacity="0.72"/>
  <text x="178" y="478" font-family="Arial, sans-serif" font-size="24" font-weight="700" fill="#2a4f92">Journey Reflection</text>
  <text x="178" y="530" font-family="Arial, sans-serif" font-size="24" fill="#465b6e">A visual marker for this part of</text>
  <text x="178" y="568" font-family="Arial, sans-serif" font-size="24" fill="#465b6e">the Computer Engineering journey.</text>
  <text x="178" y="620" font-family="Arial, sans-serif" font-size="21" fill="#7a8c9a">Click the article card to read the full story.</text>
  <g>
    <rect x="770" y="315" width="320" height="250" rx="28" fill="#ffffff" stroke="#2a4f92" stroke-width="10"/>
    <rect x="820" y="360" width="220" height="26" rx="13" fill="#dbe8ff"/>
    <rect x="820" y="406" width="220" height="26" rx="13" fill="#dbe8ff"/>
    <rect x="820" y="452" width="160" height="26" rx="13" fill="#dbe8ff"/>
    <path d="M1120 250 L1180 410 H1060 Z" fill="#ffc16b" stroke="#9a6b16" stroke-width="10" stroke-linejoin="round"/>
    <rect x="1114" y="312" width="12" height="48" rx="6" fill="#9a6b16"/>
    <circle cx="1120" cy="382" r="8" fill="#9a6b16"/>
    <circle cx="770" cy="540" r="26" fill="#2a4f92" opacity="0.16"/>
  </g>
</svg>
