<svg xmlns="http://www.w3.org/2000/svg" viewBox="0 0 960 720" fill="none">
  <defs>
    <linearGradient id="bg3" x1="160" y1="90" x2="810" y2="620" gradientUnits="userSpaceOnUse">
      <stop stop-color="#0F2F51"/>
      <stop offset="1" stop-color="#B5774F"/>
    </linearGradient>
    <linearGradient id="panel3" x1="170" y1="130" x2="790" y2="600" gradientUnits="userSpaceOnUse">
      <stop stop-color="#F7FBFF" stop-opacity=".97"/>
      <stop offset="1" stop-color="#FFF5EA" stop-opacity=".92"/>
    </linearGradient>
  </defs>
  <rect width="960" height="720" rx="48" fill="#0B1320"/>
  <circle cx="188" cy="160" r="126" fill="#6BB6FF" fill-opacity=".13"/>
  <circle cx="780" cy="566" r="168" fill="#F0B07E" fill-opacity=".15"/>
  <rect x="78" y="72" width="804" height="576" rx="34" fill="url(#bg3)" fill-opacity=".22" stroke="#9FCCFF" stroke-opacity=".22"/>
  <rect x="146" y="126" width="668" height="468" rx="30" fill="url(#panel3)"/>

  <rect x="210" y="236" width="352" height="220" rx="30" fill="#143A62"/>
  <rect x="246" y="270" width="206" height="18" rx="9" fill="#8EC4FF"/>
  <rect x="246" y="304" width="168" height="14" rx="7" fill="#D5E8FF"/>
  <path d="M246 394l52-52 46 38 56-74 66 44" stroke="#F0B07E" stroke-width="16" stroke-linecap="round" stroke-linejoin="round"/>
  <circle cx="246" cy="394" r="12" fill="#6BB6FF"/>
  <circle cx="298" cy="342" r="12" fill="#6BB6FF"/>
  <circle cx="344" cy="380" r="12" fill="#6BB6FF"/>
  <circle cx="400" cy="306" r="12" fill="#6BB6FF"/>
  <circle cx="466" cy="350" r="12" fill="#6BB6FF"/>

  <path d="M620 218l112 48-112 48-112-48 112-48z" fill="#1E5C92"/>
  <path d="M544 292v58c0 28 40 58 76 58s76-30 76-58v-58" stroke="#123A63" stroke-width="14" stroke-linecap="round" stroke-linejoin="round"/>
  <path d="M732 266v72" stroke="#123A63" stroke-width="12" stroke-linecap="round"/>
  <circle cx="732" cy="352" r="18" fill="#F0B07E"/>

  <rect x="546" y="434" width="192" height="48" rx="24" fill="#EEF6FF"/>
  <rect x="566" y="450" width="64" height="14" rx="7" fill="#123A63"/>
  <rect x="640" y="450" width="72" height="14" rx="7" fill="#6E88A3"/>

  <path d="M214 526h478" stroke="#123A63" stroke-width="18" stroke-linecap="round" opacity=".16"/>
  <path d="M214 558h380" stroke="#123A63" stroke-width="12" stroke-linecap="round" opacity=".12"/>
</svg>
