<svg xmlns="http://www.w3.org/2000/svg" viewBox="0 0 960 720" fill="none">
  <defs>
    <linearGradient id="bg1" x1="120" y1="80" x2="820" y2="620" gradientUnits="userSpaceOnUse">
      <stop stop-color="#1E5C92"/>
      <stop offset="1" stop-color="#B5774F"/>
    </linearGradient>
    <linearGradient id="panel1" x1="210" y1="160" x2="750" y2="590" gradientUnits="userSpaceOnUse">
      <stop stop-color="#FFF9F4" stop-opacity=".96"/>
      <stop offset="1" stop-color="#EEF4FF" stop-opacity=".92"/>
    </linearGradient>
  </defs>
  <rect width="960" height="720" rx="48" fill="#0E1725"/>
  <circle cx="186" cy="164" r="140" fill="#6BB6FF" fill-opacity=".16"/>
  <circle cx="796" cy="590" r="170" fill="#F0B07E" fill-opacity=".16"/>
  <rect x="74" y="72" width="812" height="576" rx="34" fill="url(#bg1)" fill-opacity=".24" stroke="#A5CFFF" stroke-opacity=".22"/>
  <rect x="146" y="128" width="668" height="464" rx="30" fill="url(#panel1)"/>

  <rect x="214" y="214" width="188" height="230" rx="26" fill="#E5F2FF"/>
  <rect x="232" y="240" width="88" height="88" rx="22" fill="#8EC4FF"/>
  <path d="M246 294c20-28 40-42 58-42 18 0 31 8 46 26" stroke="#123A63" stroke-width="16" stroke-linecap="round"/>
  <path d="M240 362h140" stroke="#123A63" stroke-width="10" stroke-linecap="round"/>
  <path d="M240 390h116" stroke="#4B6987" stroke-width="10" stroke-linecap="round"/>
  <path d="M240 418h100" stroke="#4B6987" stroke-width="10" stroke-linecap="round"/>
  <rect x="236" y="458" width="86" height="18" rx="9" fill="#1E5C92" fill-opacity=".16"/>

  <path d="M436 330C514 214 654 182 736 234" stroke="#1E5C92" stroke-width="18" stroke-linecap="round" stroke-dasharray="1 28"/>
  <path d="M710 214l48 22-44 30" stroke="#1E5C92" stroke-width="18" stroke-linecap="round" stroke-linejoin="round"/>

  <rect x="536" y="230" width="170" height="216" rx="28" fill="#143A62"/>
  <rect x="566" y="260" width="106" height="20" rx="10" fill="#8EC4FF"/>
  <rect x="566" y="298" width="82" height="16" rx="8" fill="#B9D8FF"/>
  <rect x="566" y="330" width="116" height="16" rx="8" fill="#B9D8FF"/>
  <rect x="566" y="362" width="92" height="16" rx="8" fill="#B9D8FF"/>
  <path d="M548 482h148" stroke="#8EC4FF" stroke-width="12" stroke-linecap="round"/>
  <circle cx="618" cy="192" r="46" fill="#F0B07E"/>
  <path d="M602 192l12 12 22-24" stroke="#0E1725" stroke-width="12" stroke-linecap="round" stroke-linejoin="round"/>

  <rect x="220" y="516" width="470" height="22" rx="11" fill="#123A63" fill-opacity=".16"/>
  <rect x="220" y="548" width="390" height="16" rx="8" fill="#123A63" fill-opacity=".12"/>
</svg>

