<svg xmlns="http://www.w3.org/2000/svg" viewBox="0 0 960 720" fill="none">
  <defs>
    <linearGradient id="bg2" x1="180" y1="120" x2="800" y2="640" gradientUnits="userSpaceOnUse">
      <stop stop-color="#1E5C92"/>
      <stop offset="1" stop-color="#6BB6FF"/>
    </linearGradient>
    <linearGradient id="panel2" x1="170" y1="130" x2="770" y2="600" gradientUnits="userSpaceOnUse">
      <stop stop-color="#F8FBFF" stop-opacity=".97"/>
      <stop offset="1" stop-color="#FFF5EC" stop-opacity=".92"/>
    </linearGradient>
  </defs>
  <rect width="960" height="720" rx="48" fill="#0B1320"/>
  <circle cx="196" cy="122" r="118" fill="#6BB6FF" fill-opacity=".14"/>
  <circle cx="804" cy="602" r="170" fill="#F0B07E" fill-opacity=".14"/>
  <rect x="82" y="74" width="796" height="572" rx="34" fill="url(#bg2)" fill-opacity=".22" stroke="#A9D0FF" stroke-opacity=".22"/>
  <rect x="142" y="126" width="676" height="468" rx="28" fill="url(#panel2)"/>

  <rect x="206" y="178" width="256" height="324" rx="28" fill="#153A61"/>
  <rect x="234" y="214" width="92" height="18" rx="9" fill="#8EC4FF"/>
  <rect x="234" y="248" width="162" height="14" rx="7" fill="#D9EAFF"/>
  <rect x="234" y="278" width="140" height="14" rx="7" fill="#D9EAFF"/>
  <rect x="234" y="328" width="200" height="108" rx="22" fill="#102A46"/>
  <path d="M266 382h40l32-34 26 28 38-44" stroke="#6BB6FF" stroke-width="14" stroke-linecap="round" stroke-linejoin="round"/>
  <circle cx="302" cy="438" r="10" fill="#F0B07E"/>
  <circle cx="354" cy="390" r="10" fill="#F0B07E"/>
  <circle cx="396" cy="414" r="10" fill="#F0B07E"/>

  <rect x="516" y="186" width="196" height="142" rx="28" fill="#EEF6FF"/>
  <circle cx="614" cy="256" r="44" fill="#6BB6FF"/>
  <path d="M614 228v32l26 18" stroke="#0E1725" stroke-width="12" stroke-linecap="round" stroke-linejoin="round"/>
  <rect x="518" y="356" width="226" height="122" rx="28" fill="#FFF6ED"/>
  <rect x="544" y="386" width="134" height="16" rx="8" fill="#123A63"/>
  <rect x="544" y="418" width="110" height="14" rx="7" fill="#6D86A0"/>
  <rect x="544" y="446" width="92" height="14" rx="7" fill="#6D86A0"/>

  <path d="M226 548h472" stroke="#123A63" stroke-width="18" stroke-linecap="round" opacity=".16"/>
  <path d="M226 578h344" stroke="#123A63" stroke-width="12" stroke-linecap="round" opacity=".14"/>
</svg>

